Coordinates
version=1
nRows=26
nColumns=24
inDegrees=yes

Units are S.I. units (second, meters, Newtons, ...)
Angles are in degrees.

endheader
time	pelvis_tilt	pelvis_list	pelvis_rotation	pelvis_tx	pelvis_ty	pelvis_tz	hip_flexion_r	hip_adduction_r	hip_rotation_r	knee_angle_r	ankle_angle_r	subtalar_angle_r	mtp_angle_r	hip_flexion_l	hip_adduction_l	hip_rotation_l	knee_angle_l	ankle_angle_l	subtalar_angle_l	mtp_angle_l	lumbar_extension	lumbar_bending	lumbar_rotation
      3.68000000	     -1.94353699	     -2.51173458	     -8.43061573	     -0.84102155	      0.90765474	      0.24612086	    -12.18009063	      7.26875921	     11.05661004	    -19.33898553	     24.68219938	     -7.40874297	      0.00000000	     30.59201112	     -2.33212947	     -5.63630361	    -11.21271873	      9.83021250	    -11.81776487	      0.00000000	     -9.77402037	     -0.71193694	      3.35164767
      3.68500000	     -1.98563543	     -2.31516987	     -8.37905631	     -0.83310821	      0.90670816	      0.24585221	    -12.30047436	      6.94034034	     10.56583635	    -19.92050228	     24.55278133	     -6.70635282	      0.00000000	     30.79726570	     -2.05515140	     -5.65168040	    -12.23239923	      9.33571757	    -12.28192931	      0.00000000	     -9.59206273	     -0.95690216	      3.27546579
      3.69000000	     -2.04881353	     -2.05202517	     -8.30578627	     -0.82516586	      0.90583369	      0.24558475	    -12.35337317	      6.55365931	     10.03805924	    -20.56106254	     24.36435263	     -6.01694402	      0.00000000	     31.02298117	     -1.70663852	     -5.62305087	    -13.24181633	      8.72877741	    -12.74895390	      0.00000000	     -9.37425838	     -1.28684295	      3.15866458
      3.69500000	     -2.12950692	     -1.74554426	     -8.19905985	     -0.81722081	      0.90505878	      0.24524529	    -12.34248900	      6.12584216	      9.44937364	    -21.25857804	     24.10463454	     -5.30209504	      0.00000000	     31.27262417	     -1.29711252	     -5.54827058	    -14.24032273	      8.02604395	    -13.22229289	      0.00000000	     -9.12999062	     -1.65711906	      3.01765563
      3.70000000	     -2.23029973	     -1.38060393	     -8.07566444	     -0.80929191	      0.90437121	      0.24490011	    -12.24924347	      5.64465117	      8.81441959	    -22.04269399	     23.78103848	     -4.58906419	      0.00000000	     31.55276812	     -0.82432101	     -5.42907488	    -15.23718581	      7.28667446	    -13.67806236	      0.00000000	     -8.86092599	     -2.10096157	      2.83872892
      3.70500000	     -2.34545449	     -0.96988568	     -7.92545379	     -0.80137141	      0.90378460	      0.24451851	    -12.08603308	      5.12162429	      8.13685445	    -22.90339171	     23.37586866	     -3.87949531	      0.00000000	     31.86364697	     -0.29190188	     -5.26796196	    -16.24906614	      6.53813676	    -14.10749968	      0.00000000	     -8.57143670	     -2.59913590	      2.63427201
      3.71000000	     -2.47362811	     -0.52201109	     -7.76030219	     -0.79346369	      0.90329636	      0.24413397	    -11.85217429	      4.56414648	      7.43489054	    -23.84721897	     22.88237865	     -3.18430149	      0.00000000	     32.20189895	      0.28422079	     -5.07878213	    -17.28387092	      5.82881654	    -14.48699792	      0.00000000	     -8.26923722	     -3.14526072	      2.40956421
      3.71500000	     -2.60594391	     -0.04952964	     -7.58304229	     -0.78555135	      0.90290432	      0.24375252	    -11.56123941	      3.98373333	      6.72479962	    -24.87166439	     22.28845087	     -2.51972243	      0.00000000	     32.55585365	      0.89277868	     -4.85906805	    -18.35010734	      5.18697909	    -14.81940217	      0.00000000	     -7.96225546	     -3.72664105	      2.17062793
      3.72000000	     -2.73423234	      0.43676461	     -7.40591806	     -0.77762842	      0.90258696	      0.24339534	    -11.22153280	      3.38857288	      6.02472991	    -25.98047086	     21.59974205	     -1.89889667	      0.00000000	     32.91694118	      1.51666584	     -4.62687729	    -19.45782526	      4.65910411	    -15.09171341	      0.00000000	     -7.66153084	     -4.33302839	      1.92112985
      3.72500000	     -2.85309865	      0.91935468	     -7.22351960	     -0.76968419	      0.90235958	      0.24306054	    -10.84135698	      2.79584389	      5.33265412	    -27.17063555	     20.79285932	     -1.31170373	      0.00000000	     33.26398944	      2.14221877	     -4.38671240	    -20.57873384	      4.22270624	    -15.31637185	      0.00000000	     -7.37227902	     -4.94147433	      1.68185070
      3.73000000	     -2.95673154	      1.39150892	     -7.03663040	     -0.76170868	      0.90220916	      0.24272253	    -10.42759963	      2.21018920	      4.66582651	    -28.44287421	     19.86301632	     -0.76261158	      0.00000000	     33.57963080	      2.76417938	     -4.15249628	    -21.69144701	      3.89355553	    -15.50246208	      0.00000000	     -7.10423251	     -5.54381725	      1.45777856
      3.73500000	     -3.03908235	      1.84228764	     -6.88096415	     -0.75373227	      0.90212778	      0.24240968	     -9.98020311	      1.62703763	      4.01047642	    -29.79462210	     18.83263385	     -0.24418177	      0.00000000	     33.85368557	      3.35808540	     -3.91383505	    -22.79516443	      3.66042623	    -15.68200508	      0.00000000	     -6.86505415	     -6.12413616	      1.25673443
      3.74000000	     -3.08374409	      2.28991237	     -6.72319857	     -0.74565436	      0.90216892	      0.24215203	     -9.54160350	      1.05188438	      3.42448125	    -31.19122377	     17.62572547	      0.16416476	      0.00000000	     34.03577698	      3.94415217	     -3.74365559	    -23.82550084	      3.55881969	    -15.77891511	      0.00000000	     -6.65811168	     -6.71025481	      1.05188017
      3.74500000	     -3.11911743	      2.70656945	     -6.57070225	     -0.73765224	      0.90220030	      0.24183283	     -9.03483276	      0.48673746	      2.81577266	    -32.70693685	     16.37621967	      0.59727149	      0.00000000	     34.17695876	      4.50989336	     -3.57084037	    -24.80169493	      3.54042451	    -15.93701605	      0.00000000	     -6.48577072	     -7.25706883	      0.89501923
      3.75000000	     -3.14554675	      3.11251826	     -6.43792264	     -0.72972592	      0.90224228	      0.24145462	     -8.46756547	     -0.08680589	      2.23909637	    -34.31509685	     15.06364163	      0.99874969	      0.00000000	     34.26980542	      5.06663004	     -3.40492772	    -25.71050093	      3.58968534	    -16.12587770	      0.00000000	     -6.34153226	     -7.77520392	      0.74648620
      3.75500000	     -3.14536610	      3.50297575	     -6.30675045	     -0.72176905	      0.90238213	      0.24108128	     -7.89181538	     -0.64965366	      1.70716564	    -35.95848732	     13.60660932	      1.30511941	      0.00000000	     34.26647690	      5.60387964	     -3.30907426	    -26.50810233	      3.76165088	    -16.26315546	      0.00000000	     -6.22873625	     -8.27947866	      0.61067551
      3.76000000	     -3.12974476	      3.89493398	     -6.17989532	     -0.71384046	      0.90256559	      0.24068465	     -7.28350739	     -1.22315080	      1.21076568	    -37.65081216	     12.06429712	      1.53209803	      0.00000000	     34.19342937	      6.14118984	     -3.25528917	    -27.21488064	      4.04407096	    -16.35618359	      0.00000000	     -6.13995649	     -8.77555469	      0.46335842
      3.76500000	     -3.09269589	      4.27008831	     -6.05496659	     -0.70592897	      0.90283005	      0.24026488	     -6.66212074	     -1.78349925	      0.75823962	    -39.36268353	     10.41601367	      1.63870505	      0.00000000	     34.03331672	      6.66395504	     -3.23802794	    -27.81456832	      4.44088541	    -16.41379168	      0.00000000	     -6.08208445	     -9.24864157	      0.32484667
      3.77000000	     -3.06166173	      4.64574112	     -5.92582869	     -0.69813738	      0.90309224	      0.23977648	     -5.97472972	     -2.35551215	      0.32036376	    -41.12936536	      8.74900778	      1.67863267	      0.00000000	     33.84043337	      7.19287699	     -3.23659803	    -28.33595847	      4.90403430	    -16.45159009	      0.00000000	     -6.04178238	     -9.70613199	      0.17875571
      3.77500000	     -3.03971842	      5.01568185	     -5.79682667	     -0.69043152	      0.90337589	      0.23924352	     -5.23191136	     -2.92721230	     -0.08511207	    -42.92024465	      7.04738854	      1.60967319	      0.00000000	     33.61327656	      7.71727152	     -3.25013837	    -28.77580934	      5.42111549	    -16.46187427	      0.00000000	     -6.00430502	    -10.14613190	      0.02701919
      3.78000000	     -3.01458252	      5.37648470	     -5.66819358	     -0.68280287	      0.90370684	      0.23867844	     -4.45613131	     -3.48802766	     -0.44749459	    -44.71193981	      5.31933795	      1.39334640	      0.00000000	     33.33860496	      8.23623319	     -3.27031082	    -29.13655588	      5.99377779	    -16.45076513	      0.00000000	     -5.98464909	    -10.56413561	     -0.13260077
      3.78500000	     -3.00401660	      5.73137460	     -5.53888617	     -0.67526623	      0.90406855	      0.23809055	     -3.62645808	     -4.03808475	     -0.76906771	    -46.50140941	      3.59028653	      1.02253751	      0.00000000	     33.04329824	      8.74682930	     -3.30056130	    -29.42919076	      6.59341594	    -16.40892294	      0.00000000	     -5.96139462	    -10.96592180	     -0.30793699
      3.79000000	     -2.99561093	      6.06948858	     -5.41474727	     -0.66781734	      0.90447100	      0.23748579	     -2.76055343	     -4.56716906	     -1.05166279	    -48.27794581	      1.89481741	      0.49566838	      0.00000000	     32.71727546	      9.24081450	     -3.32753025	    -29.66206666	      7.21238135	    -16.35649156	      0.00000000	     -5.94686872	    -11.34028519	     -0.48642112
      3.79500000	     -3.03980288	      6.37182882	     -5.29623103	     -0.66053104	      0.90487773	      0.23691772	     -1.79788889	     -5.03012339	     -1.25400258	    -50.03847932	      0.23004026	     -0.21363706	      0.00000000	     32.43456799	      9.67900974	     -3.37472715	    -29.86952680	      7.82262728	    -16.25469816	      0.00000000	     -5.89334686	    -11.66627045	     -0.66831129
      3.80000000	     -3.08715522	      6.65390040	     -5.18793837	     -0.65327837	      0.90528948	      0.23629817	     -0.80720091	     -5.47814693	     -1.44629386	    -51.77266468	     -1.28924372	     -1.06011852	      0.00000000	     32.12249643	     10.10551037	     -3.38387835	    -30.02704997	      8.47650792	    -16.15750731	      0.00000000	     -5.83118129	    -11.95318799	     -0.80346507
      3.80500000	     -3.09193595	      6.95591819	     -5.09008993	     -0.64608048	      0.90582769	      0.23569552	      0.15926585	     -5.93563455	     -1.58163738	    -53.46482937	     -2.63811563	     -2.02042739	      0.00000000	     31.73405414	     10.55676014	     -3.38086710	    -30.11610834	      9.06886383	    -16.09491758	      0.00000000	     -5.82550370	    -12.26432852	     -0.99427749
